<svg xmlns="http://www.w3.org/2000/svg" xmlns:xlink="http://www.w3.org/1999/xlink" width="18" height="18.5" viewBox="0 0 36 37"><defs><path id="meena" d="M302.33 1060.4c.75.5 1.19 1.32 1.19 2.2v9.73c0 .88-.45 1.7-1.19 2.18l-13.8 9.04c-.88.58-2.02.58-2.9 0l-13.54-8.86a2.62 2.62 0 0 1-1.18-2.2v-9.9c0-.86.42-1.66 1.13-2.15l13.3-9.2a2.66 2.66 0 0 1 2.98-.03zm-13.62-5.3l.03 6.79 4.78 3.45 5.1-3.4zm-13.24 6.8l4.88 3.25 4.9-3.4v-6.64zm-1.34 7.57l3.16-2.2-3.16-2.1zm11.2 3.16l-4.93-3.29-4.93 3.42 9.87 6.56zm1.75-3l3.3-2.2-3.72-2.43-3.2 2.22zm11.54 3.17l-5.08-3.31-4.72 3.13v6.7zm1.41-7.63l-3.35 2.22 3.35 2.19z"/></defs><g><g transform="translate(-269 -1049)"><use fill="#fff" xlink:href="#meena"/></g></g></svg>