<svg xmlns="http://www.w3.org/2000/svg" xmlns:xlink="http://www.w3.org/1999/xlink" width="19.5" height="19.5" viewBox="0 0 39 39"><defs><path id="t32ha" d="M391.26 1057.93a17.93 17.93 0 0 0-6.58-6.53 17.8 17.8 0 0 0-9.09-2.4c-3.28 0-6.3.8-9.08 2.4a17.93 17.93 0 0 0-9.01 15.54c0 3.91 1.15 7.43 3.45 10.55a17.7 17.7 0 0 0 8.92 6.48c.42.08.74.02.94-.16.2-.19.3-.42.3-.7v-1.26l-.02-2.08-.54.1a10 10 0 0 1-2.94-.08c-.57-.11-1.1-.35-1.58-.71a2.97 2.97 0 0 1-1.04-1.44l-.23-.54c-.16-.35-.4-.75-.75-1.19a2.84 2.84 0 0 0-1.02-.89l-.17-.11a1.78 1.78 0 0 1-.3-.28c-.1-.11-.17-.22-.21-.33-.05-.1-.01-.2.11-.27.13-.07.36-.1.69-.1l.47.07c.31.06.7.25 1.16.56.47.3.85.71 1.15 1.21.36.64.8 1.13 1.3 1.46.51.34 1.03.5 1.55.5s.96-.03 1.34-.11c.38-.08.73-.2 1.06-.35a3.77 3.77 0 0 1 1.15-2.41c-.9-.1-1.7-.23-2.41-.42a9.58 9.58 0 0 1-2.22-.91 6.32 6.32 0 0 1-3.13-4.02 11.57 11.57 0 0 1-.48-3.5c0-1.89.62-3.5 1.86-4.82-.58-1.41-.53-3 .16-4.76.46-.14 1.14-.04 2.03.31a14.28 14.28 0 0 1 2.97 1.53 16.84 16.84 0 0 1 9.05 0l.9-.56c.6-.37 1.33-.72 2.16-1.03.83-.3 1.47-.4 1.9-.25.71 1.76.78 3.35.2 4.76a6.78 6.78 0 0 1 1.86 4.82c0 1.32-.16 2.5-.49 3.51a7.21 7.21 0 0 1-1.24 2.45 6.54 6.54 0 0 1-1.91 1.56c-.76.42-1.5.72-2.22.9-.71.2-1.52.34-2.41.43.82.7 1.22 1.8 1.22 3.32v4.93c0 .28.1.51.3.7.2.18.5.24.93.16a17.71 17.71 0 0 0 8.92-6.48 17.34 17.34 0 0 0 3.45-10.55c0-3.26-.81-6.26-2.43-9z"/></defs><g><g transform="translate(-356 -1047)"><use fill="#fff" xlink:href="#t32ha"/></g></g></svg>