<svg xmlns="http://www.w3.org/2000/svg" xmlns:xlink="http://www.w3.org/1999/xlink" width="22.5" height="18.5" viewBox="0 0 45 37"><defs><path id="8dmja" d="M208.77 1065.55v5.16a16.8 16.8 0 0 1-16.38 13.3 16.5 16.5 0 0 1-16.39-16.62 16.5 16.5 0 0 1 16.39-16.6c4.46 0 8.5 1.8 11.46 4.74l-3.7 4.07a10.82 10.82 0 0 0-7.76-3.28 11 11 0 0 0-10.93 11.07 11 11 0 0 0 10.93 11.08c4.89 0 9.03-3.26 10.42-7.76h-9.33v-5.16zm9.94 2.7h-3.13v3.18h-2.68v-3.17h-3.13v-2.72h3.13v-3.17h2.68v3.17h3.13z"/></defs><g><g transform="translate(-175 -1049)"><use fill="#fff" xlink:href="#8dmja"/></g></g></svg>