<svg xmlns="http://www.w3.org/2000/svg" xmlns:xlink="http://www.w3.org/1999/xlink" width="18.5" height="17.5" viewBox="0 0 37 35"><defs><path id="s3oca" d="M481.47 1069.24v12.39h-7.25v-11.56c0-2.91-1.05-4.9-3.67-4.9-2 0-3.2 1.34-3.72 2.64-.19.46-.24 1.1-.24 1.75v12.07h-7.25s.1-19.59 0-21.62h7.25v3.07l-.04.07h.04v-.07a7.2 7.2 0 0 1 6.53-3.57c4.77 0 8.35 3.08 8.35 9.73zm-25.66-15.91c0 2.07-1.57 3.73-4.1 3.73h-.04c-2.43 0-4.01-1.66-4.01-3.73 0-2.12 1.62-3.74 4.1-3.74 2.48 0 4 1.62 4.05 3.74zm-7.72 6.68h7.25v21.62h-7.25z"/></defs><g><g transform="translate(-446 -1048)"><use fill="#fff" xlink:href="#s3oca"/></g></g></svg>