<svg xmlns="http://www.w3.org/2000/svg" xmlns:xlink="http://www.w3.org/1999/xlink" width="20.5" height="17" viewBox="0 0 41 34"><defs><path id="j1pha" d="M572.95 1051.35c-1.5.9-3.17 1.54-4.95 1.9a7.79 7.79 0 0 0-13.27 7.1 22.1 22.1 0 0 1-16.05-8.15 7.79 7.79 0 0 0 2.41 10.4 7.77 7.77 0 0 1-3.52-.98v.1a7.8 7.8 0 0 0 6.24 7.64 7.9 7.9 0 0 1-3.52.13 7.8 7.8 0 0 0 7.28 5.41 15.62 15.62 0 0 1-11.53 3.23c3.45 2.21 7.54 3.5 11.94 3.5 14.32 0 22.15-11.87 22.15-22.16l-.02-1.01a15.68 15.68 0 0 0 3.89-4.03c-1.4.62-2.9 1.04-4.47 1.23a7.84 7.84 0 0 0 3.42-4.31z"/></defs><g><g transform="translate(-535 -1049)"><use fill="#fff" xlink:href="#j1pha"/></g></g></svg>